<svg id="Layer_1" data-name="Layer 1" xmlns="http://www.w3.org/2000/svg" width="4.02in" height="1.34in" viewBox="0 0 289.13 96.59">
  <defs>
    <style>
      .cls-1 {
        fill: #fff;
      }

      .cls-2 {
        fill: #00a3c9;
      }

      .cls-3 {
        fill: #ffd520;
      }
    </style>
  </defs>
  <title>Artboard 21790</title>
  <path class="cls-1" d="M74.48,32.95c.67,2,2.81,6.64,7.27,6.64,3.19,0,5.21-2.14,5.21-5.42,0-3.57-2.73-5-5.42-6.34-1.39-.67-7.06-2.65-7.06-7.69,0-4.16,3.15-7.73,8.65-7.73a12.39,12.39,0,0,1,3.49.55,16,16,0,0,0,1.6.46c.17,1.47.42,3.15.76,5.67l-1,.13c-.71-2.48-1.89-5.42-5.71-5.42a4.37,4.37,0,0,0-4.54,4.66c0,3.11,2.23,4.49,5.42,5.92,2.77,1.22,7.18,2.94,7.18,8.15,0,4.87-4,8.44-9.32,8.44a13.47,13.47,0,0,1-4-.63c-1-.34-1.81-.67-2.31-.88-.34-1.09-.8-4.07-1.22-6.34Z"/>
  <path class="cls-1" d="M95.82,26.86c0-2.52-.08-2.56-2.86-2.9v-.76a50.28,50.28,0,0,0,6.13-1.68v3.15c.8-.55,1.68-1.13,2.86-1.85a6.85,6.85,0,0,1,3.78-1.22,5,5,0,0,1,4.75,3.28,33.72,33.72,0,0,1,3.15-2.1,7.11,7.11,0,0,1,3.7-1.18c3.4,0,5.29,2.27,5.29,5.59v9.37c0,2.35.21,2.56,2.65,2.81v1h-8.9v-1c2.77-.25,3-.46,3-2.81V28.5c0-2.44-.8-4.54-3.91-4.54a7.33,7.33,0,0,0-4.66,2c0,.46.08.8.08,1.18v9.41c0,2.35.21,2.56,2.69,2.81v1h-8.9v-1c2.73-.25,2.94-.46,2.94-2.81V28.33c0-2.44-.88-4.37-3.78-4.37a7.84,7.84,0,0,0-4.7,2V36.56c0,2.35.21,2.56,2.73,2.81v1H92.72v-1c2.9-.25,3.11-.46,3.11-2.81Z"/>
  <path class="cls-1" d="M133.71,36.56c0,2.35.21,2.56,3,2.81v1h-9.28v-1c2.77-.25,3-.46,3-2.81v-9.7c0-2.52-.08-2.56-2.86-2.9v-.76a50.26,50.26,0,0,0,6.13-1.68ZM134.25,14a2.21,2.21,0,0,1-2.18,2.27A2.29,2.29,0,1,1,134.25,14Z"/>
  <path class="cls-1" d="M144.46,34.8c0,3.28,1.55,3.86,2.69,3.86a5.36,5.36,0,0,0,2.48-.8l.42.92-3.44,1.72a3.32,3.32,0,0,1-1.26.34c-2.69,0-4.16-1.72-4.16-5.08V23.71h-3.07l-.17-.42,1.22-1.18h2V19.47l2.73-2.77h.55v5.42h4.87a1.21,1.21,0,0,1-.29,1.6h-4.58Z"/>
  <path class="cls-1" d="M157.31,24.55a9.23,9.23,0,0,1,6-2.94c3.61-.08,5.8,2.31,5.8,6v8.9c0,2.35.21,2.56,2.77,2.77v1h-8.9v-1c2.65-.25,2.86-.46,2.86-2.81V28.92c0-3-1.09-5-4.16-5a6,6,0,0,0-4.33,1.93V36.56c0,2.35.21,2.56,2.77,2.81v1h-8.9v-1c2.65-.25,2.86-.46,2.86-2.81v-21c0-2.56-.08-2.52-3-2.77V12c2-.38,4.66-1,6.26-1.47Z"/>
  <path class="cls-1" d="M175.2,34.46c.67,2.44,2.56,5.12,5,5.12a2.92,2.92,0,0,0,3-3.11c0-1.72-1-2.94-3.28-3.95-2.73-1.22-5-2.65-5-5.42,0-3,2.6-5.5,6.26-5.5a8.54,8.54,0,0,1,3.53.71,21,21,0,0,1,.92,4l-1,.25c-1.26-2.77-2.6-3.74-4.2-3.74a2.7,2.7,0,0,0-2.77,2.86c0,1.72,1.81,2.9,3.65,3.65,3.07,1.26,5.08,2.9,5.08,5.71,0,3.86-3.57,5.75-6.76,5.75a8.31,8.31,0,0,1-4.87-1.55,19.19,19.19,0,0,1-.5-4.58Z"/>
  <path class="cls-1" d="M189.19,31.73c0-7.06,5.46-10.12,9.28-10.12a9,9,0,0,1,9.16,9.32c0,6.55-4.87,9.91-9.11,9.91A9.14,9.14,0,0,1,189.19,31.73Zm14.62.13c0-4.66-2-9-5.84-9-2.81,0-5,2.9-5,7.31,0,5.33,2.31,9.41,6,9.41C201.58,39.59,203.8,37.53,203.8,31.86Z"/>
  <path class="cls-1" d="M216.74,24.67c.8-.59,1.72-1.18,2.81-1.85a6.76,6.76,0,0,1,3.61-1.22c3.44,0,5.33,2.27,5.33,5.59v9.37c0,2.35.21,2.56,2.65,2.81v1h-8.9v-1c2.77-.25,3-.46,3-2.81V28.5c0-2.44-.8-4.54-3.91-4.54a7.4,7.4,0,0,0-4.58,2V36.56c0,2.35.21,2.56,2.69,2.81v1h-9.07v-1c2.9-.25,3.11-.46,3.11-2.81v-9.7c0-2.52-.08-2.56-2.86-2.9v-.76a50.26,50.26,0,0,0,6.13-1.68Z"/>
  <path class="cls-1" d="M239.67,36.56c0,2.35.21,2.56,3,2.81v1h-9.28v-1c2.77-.25,3-.46,3-2.81v-9.7c0-2.52-.08-2.56-2.86-2.9v-.76a50.26,50.26,0,0,0,6.13-1.68ZM240.22,14A2.22,2.22,0,0,1,238,16.27,2.29,2.29,0,1,1,240.22,14Z"/>
  <path class="cls-1" d="M257.1,40.84c-1.43-.25-2.06-1.68-2.31-2.73-1.76,1.13-4,2.73-4.91,2.73a5,5,0,0,1-5-4.83c0-1.93,1-3.36,3.19-4.24s5.5-2.06,6.76-2.94V27.4c0-2.6-1.22-4-3.44-4-2.06,0-2.94,1.76-3.4,3.53a1,1,0,0,1-1,.8c-.67,0-1.81-.67-1.81-1.43,0-.55.5-1.13,1.43-1.81a16.42,16.42,0,0,1,6.47-2.9,5.85,5.85,0,0,1,3.32,1,4.69,4.69,0,0,1,1.6,4.07v9.45c0,1.55.55,2.27,1.17,2.27a4.79,4.79,0,0,0,1.81-.55l.38.92Zm-2.31-10.67c-.92.38-3.44,1.51-4.24,1.93-1.47.8-2.18,1.64-2.18,3.15a3,3,0,0,0,2.77,3.28,7.34,7.34,0,0,0,3.65-1.64Z"/>
  <path class="cls-1" d="M269.16,24.67c.8-.59,1.72-1.18,2.81-1.85a6.76,6.76,0,0,1,3.61-1.22c3.44,0,5.33,2.27,5.33,5.59v9.37c0,2.35.21,2.56,2.65,2.81v1h-8.9v-1c2.77-.25,3-.46,3-2.81V28.5c0-2.44-.8-4.54-3.91-4.54a7.4,7.4,0,0,0-4.58,2V36.56c0,2.35.21,2.56,2.69,2.81v1h-9.07v-1c2.9-.25,3.11-.46,3.11-2.81v-9.7c0-2.52-.08-2.56-2.86-2.9v-.76a50.26,50.26,0,0,0,6.13-1.68Z"/>
  <g>
    <circle class="cls-2" cx="27.69" cy="27.69" r="27.68" transform="translate(-8.49 12.7) rotate(-22.5)"/>
    <path class="cls-3" d="M47,34.16a6.7,6.7,0,0,0-5.75-3.59h0L55,27.69l-13.8-2.87h0a11.16,11.16,0,0,1,6.85-2.56c3,0,5.66-3.76,4-6.62,0,0-.5,4.49-6.16,3a6.7,6.7,0,0,0-6.6,1.53h0L47,8.36,35.23,16.08h0a11.16,11.16,0,0,1,3-6.65c2.11-2.18,1.35-6.66-1.86-7.5,0,0,2.82,3.52-2.24,6.47a6.71,6.71,0,0,0-3.59,5.75h0L27.69.35l-2.87,13.8h0A11.17,11.17,0,0,1,22.25,7.3c0-3-3.76-5.66-6.61-4,0,0,4.49.5,3,6.16a6.7,6.7,0,0,0,1.53,6.6h0L8.36,8.36h0L14.65,18l1.43,2.18h0a11.16,11.16,0,0,1-6.66-3C7.24,15,2.76,15.77,1.93,19c0,0,3.52-2.82,6.47,2.24a6.7,6.7,0,0,0,5.75,3.59h0L.35,27.69l13.8,2.87h0A11.16,11.16,0,0,1,7.3,33.13c-3,0-5.66,3.76-4,6.62,0,0,.5-4.49,6.16-3a6.7,6.7,0,0,0,6.61-1.53h0L8.36,47,20.15,39.3a11.15,11.15,0,0,1-3,6.66C15,48.13,15.77,52.62,19,53.45c0,0-2.82-3.52,2.24-6.47a6.7,6.7,0,0,0,3.59-5.75h0L27.69,55l2.88-13.8h0a11.16,11.16,0,0,1,2.56,6.85c0,3,3.76,5.66,6.62,4,0,0-4.49-.5-3-6.16a6.7,6.7,0,0,0-1.53-6.6h0L47,47l-4.08-6.22L39.3,35.23h0a11.16,11.16,0,0,1,6.65,3c2.18,2.11,6.66,1.35,7.5-1.86C53.45,36.41,49.92,39.23,47,34.16Z"/>
  </g>
  <g>
    <path class="cls-1" d="M91.3,77c-.5,1.38-2.05,5.23-2.68,6.53H70.15l.25-1.13c3.22-.25,3.52-.54,4.15-3.73L78,61.2c.63-3.22.42-3.39-3-3.73l.25-1.09H85.73l-.25,1.09c-3.35.29-3.52.54-4.1,3.73L78.07,78.53c-.29,1.55-.21,2.51.46,3s1.93.54,3.77.54c2.43,0,3.85-.25,4.9-1.26a16.73,16.73,0,0,0,2.93-4.27Z"/>
    <path class="cls-1" d="M107.54,79.33c-3.68,3.94-6.82,4.73-8.83,4.73s-4.61-1.13-4.61-6.11a13.9,13.9,0,0,1,5-10.84,10.44,10.44,0,0,1,5.78-2.34,3.45,3.45,0,0,1,3.68,3.35c0,4.15-7,6.41-11.05,7.41a7.68,7.68,0,0,0-.08,1.34c0,2.26.71,4.73,3.27,4.73,1.76,0,4-1.17,6.11-3.22ZM101.64,67c-1.13.63-3.22,2.55-3.94,7.24,6-1.59,7.75-3.52,7.75-5.44a2.06,2.06,0,0,0-2.09-2.3A3.43,3.43,0,0,0,101.64,67Z"/>
    <path class="cls-1" d="M128.22,79.7c-2.26,2.8-5.07,4.35-6.11,4.35-.8,0-1.34-.63-.75-3.68l.84-4h-.08a30.1,30.1,0,0,1-5.4,5.78,6.93,6.93,0,0,1-3.89,1.88c-1.09,0-2.43-1.38-2.43-4.73a15.43,15.43,0,0,1,5-11.35,13.27,13.27,0,0,1,7.79-3.22,13.74,13.74,0,0,1,2.6.29,8.24,8.24,0,0,0,1.59.25l.13.17c-.67,2.6-1.93,8.29-2.89,13.61-.29,1.47-.17,1.8.08,1.8a9.11,9.11,0,0,0,3-2.18Zm-5.44-6.53c.46-1.67,1.09-4.69,1.38-6a7,7,0,0,0-2.81-.59,5.2,5.2,0,0,0-3,.88c-2.85,2.09-4.52,7-4.52,11.18,0,1.88.54,2.76,1.13,2.76C116.62,81.38,121.35,76.06,122.78,73.17Z"/>
    <path class="cls-1" d="M130.65,68.86c2.14-2.39,4.73-4.1,5.86-4.1s1.09,1.93.46,4.86l-.42,2.09h.13c2.14-4.1,4.61-7,6.28-7a2.27,2.27,0,0,1,1.8,1,1.84,1.84,0,0,1,0,1.8,4.41,4.41,0,0,1-1.09,1.21c-.38.25-.71.25-.92,0a1.94,1.94,0,0,0-1.42-.71c-.5,0-1.17.42-2.14,1.76a28.68,28.68,0,0,0-3,5.19c-.67,2.81-1.17,5.44-1.67,8.21a15.37,15.37,0,0,0-3,.75l-.33-.34c1.09-4.48,2.26-9.63,3.06-14.11.25-1.38.25-1.8-.08-1.8a8.31,8.31,0,0,0-3,2Z"/>
    <path class="cls-1" d="M165,80c-2.47,2.68-4.81,4.06-5.9,4.06s-1.42-1.13-.67-4.35,1.51-6.2,2.26-9.3c.59-2.39.33-3-.33-3-1.84,0-6.7,5.19-8.79,8.75-.5,2.05-1.13,4.56-1.63,7.08a20.31,20.31,0,0,0-3,.84l-.25-.34c1.13-4.52,2.39-9.55,3.39-14.19.33-1.34.21-1.67,0-1.67a7.77,7.77,0,0,0-2.72,1.88l-.54-1c2.26-2.47,4.73-4,5.9-4,1,0,1.13,1.42.33,4.65L152.12,73h.08a28.21,28.21,0,0,1,7.7-7.37,5.64,5.64,0,0,1,2.81-.92c1,0,2.18.63.92,6-.67,2.85-1.34,5.78-2.05,8.71-.25,1.13-.21,1.51.08,1.51a7.33,7.33,0,0,0,2.76-2Z"/>
    <path class="cls-1" d="M175.74,79.87c-1.38,1.72-4.65,4.19-6.11,4.19-.84,0-1.38-.67-.54-4.1l2.6-10.72c.25-.92.25-1.34,0-1.34a8.14,8.14,0,0,0-2.85,1.8l-.5-1c2.3-2.26,5.23-4,6.36-4,.92,0,.88,1.34.42,3.31l-2.89,11.56c-.25,1-.17,1.34.08,1.34.5,0,2-1.09,2.93-2Zm1.09-21.27A2.34,2.34,0,0,1,174.6,61a1.76,1.76,0,0,1-1.76-1.84,2.46,2.46,0,0,1,2.3-2.47A1.73,1.73,0,0,1,176.82,58.6Z"/>
    <path class="cls-1" d="M197.46,80c-2.47,2.68-4.81,4.06-5.9,4.06s-1.42-1.13-.67-4.35,1.51-6.2,2.26-9.3c.59-2.39.33-3-.33-3-1.84,0-6.7,5.19-8.79,8.75-.5,2.05-1.13,4.56-1.63,7.08a20.31,20.31,0,0,0-3,.84l-.25-.34c1.13-4.52,2.39-9.55,3.39-14.19.33-1.34.21-1.67,0-1.67a7.77,7.77,0,0,0-2.72,1.88l-.54-1c2.26-2.47,4.73-4,5.9-4,1,0,1.13,1.42.33,4.65L184.57,73h.08a28.21,28.21,0,0,1,7.7-7.37,5.64,5.64,0,0,1,2.81-.92c1,0,2.18.63.92,6-.67,2.85-1.34,5.78-2.05,8.71-.25,1.13-.21,1.51.08,1.51a7.33,7.33,0,0,0,2.76-2Z"/>
    <path class="cls-1" d="M218.4,65.72a5.76,5.76,0,0,1-3,2,4.09,4.09,0,0,1-1.09.13,6.46,6.46,0,0,1,.33,2.34,8.21,8.21,0,0,1-3.18,6.41,12.49,12.49,0,0,1-5.4,2.43,1.85,1.85,0,0,0-.84,1.34c0,.63,1,1.38,3,2.43,4,2.14,5.65,3.77,5.65,5.57,0,3.47-5.86,6-9.88,6s-7.58-2.09-7.49-4.69c0-1.8,2.43-3.68,7-6-1-.67-1.59-1.51-1.55-2.05s.59-1.42,2.55-2.6c-2.39-.54-3.64-2.26-3.64-5.11a9,9,0,0,1,3.52-7,9.27,9.27,0,0,1,5.36-2.09,5.44,5.44,0,0,1,3.56,1.17,9.5,9.5,0,0,0,4.73-1Zm-7.54,23.74c0-1.13-1.13-2.18-3.06-3.31-1.38-.84-2.55-1.51-3.14-1.8-2.81,1.34-4.65,3-4.65,4.56,0,2.14,2.76,3.64,5.69,3.64C208.85,92.56,210.86,91.09,210.86,89.46Zm.71-19.18c0-2.39-1-4.06-2.81-4.06a3.79,3.79,0,0,0-3.06,1.88,9.65,9.65,0,0,0-1.59,5.44c0,2.47,1.21,3.77,2.72,3.77C209.06,77.32,211.57,74.76,211.57,70.28Z"/>
    <path class="cls-1" d="M247.07,77c-.5,1.38-2.05,5.23-2.68,6.53H225.93l.25-1.13c3.22-.25,3.52-.54,4.15-3.73l3.43-17.5c.63-3.22.42-3.39-3-3.73l.25-1.09h10.47l-.25,1.09c-3.35.29-3.52.54-4.1,3.73l-3.31,17.33c-.29,1.55-.21,2.51.46,3s1.93.54,3.77.54c2.43,0,3.85-.25,4.9-1.26a16.73,16.73,0,0,0,2.93-4.27Z"/>
    <path class="cls-1" d="M267.5,79.7c-2.26,2.8-5.07,4.35-6.11,4.35-.79,0-1.34-.63-.75-3.68l.84-4h-.08a30.1,30.1,0,0,1-5.4,5.78,6.93,6.93,0,0,1-3.89,1.88c-1.09,0-2.43-1.38-2.43-4.73a15.43,15.43,0,0,1,5-11.35,13.27,13.27,0,0,1,7.79-3.22,13.74,13.74,0,0,1,2.6.29,8.23,8.23,0,0,0,1.59.25l.13.17c-.67,2.6-1.93,8.29-2.89,13.61-.29,1.47-.17,1.8.08,1.8a9.1,9.1,0,0,0,3-2.18Zm-5.44-6.53c.46-1.67,1.09-4.69,1.38-6a7,7,0,0,0-2.81-.59,5.2,5.2,0,0,0-3,.88c-2.85,2.09-4.52,7-4.52,11.18,0,1.88.54,2.76,1.13,2.76C255.91,81.38,260.64,76.06,262.06,73.17Z"/>
    <path class="cls-1" d="M272.11,55.17c3.27-.38,5.57-1.42,6.24-1.42.42,0,.42.42.21,1.3-1.42,5.74-2.55,10.63-3.73,16h.08c3.6-4.4,7.16-6.28,9.09-6.28s3,1.84,3,4.61a16.09,16.09,0,0,1-6.45,12.39,11.69,11.69,0,0,1-6.32,2.3,4.06,4.06,0,0,1-3.35-1.8c-.63-1-.79-2.51-.25-5.23,1.17-5.74,2.64-12.06,4-18.8.38-1.88.25-2-1.38-2l-1.21,0Zm6.36,26.34c2.47-1.47,5-6.32,5-11.43,0-2.13-.63-3-1.42-3-1.47,0-4.94,2.68-7.62,6.49a24.19,24.19,0,0,0-.75,3.27c-.75,4.1.88,5.32,2.6,5.32A4.51,4.51,0,0,0,278.47,81.5Z"/>
  </g>
</svg>
